<?xml version="1.0" encoding="utf-8"?>
<!-- Generator: Adobe Illustrator 19.0.0, SVG Export Plug-In . SVG Version: 6.00 Build 0)  -->
<svg version="1.1" id="Layer_1" xmlns="http://www.w3.org/2000/svg" xmlns:xlink="http://www.w3.org/1999/xlink" x="0px" y="0px"
	 viewBox="0 841.9 20 20" style="enable-background:new 0 841.9 20 20;" xml:space="preserve">
<path d="M12.9,849.7c0,0-1,0-1.3,0c-0.1,0-0.1,0-0.2,0c0,0-0.1,0-0.1,0c-0.1,0-0.1,0.1-0.2,0.2s-0.1,0.1-0.1,0.2
	c0,0.1-0.1,0.4-0.2,0.8c-0.1,0.4-0.2,0.7-0.3,1c0,0.1,0,0.1,0,0.1c0,0.1,0,0.1-0.1,0.1c0,0-0.1,0-0.1,0c-0.1,0-0.1,0-0.3,0
	c-0.2,0-0.5-0.1-0.9-0.1c-0.3,0-0.7-0.1-1-0.1c-0.1,0-0.1,0-0.1,0c0,0-0.1-0.1-0.1-0.1c-0.1-0.2-0.1-0.3-0.2-0.5c0,0,0,0,0-0.1
	c0,0,0,0,0,0l0,0c0,0,0,0,0,0c0,0,0.1,0,0.1,0c0.3,0,2.5,0,2.5,0c0.1,0,0.2-0.1,0.2-0.2s-0.1-0.2-0.2-0.2c0,0-2.1,0-2.5,0
	c-0.1,0-0.2,0-0.3,0.1c0,0-0.1,0.1-0.1,0.1c0,0.1,0,0.1,0,0.2c0,0,0,0.1,0,0.1c0,0.2,0.1,0.3,0.2,0.6c0,0.1,0.1,0.2,0.2,0.3
	c0.1,0.1,0.2,0.1,0.3,0.1c0.2,0,0.6,0.1,1,0.1c0.3,0,0.7,0.1,0.9,0.1c0.1,0,0.2,0,0.3,0c0,0,0.1,0,0.1,0c0,0,0,0,0,0.1
	c0,0.1,0.1,0.1,0.1,0.2c0,0,0,0,0,0.1c0,0,0,0,0,0.1c0,0,0,0-0.1,0c-0.1,0-0.7,0-1.3,0c-0.3,0-0.6,0-0.8,0c-0.2,0-0.4,0-0.4,0
	c-0.1,0-0.2,0.1-0.2,0.2s0.1,0.2,0.2,0.2c0,0,2.3,0,2.5,0c0.1,0,0.3,0,0.3-0.1c0.1-0.1,0.1-0.2,0.1-0.3c0-0.1,0-0.2-0.1-0.3
	c0-0.1-0.1-0.2-0.1-0.2c0,0,0-0.1,0.1-0.1c0-0.1,0.1-0.1,0.1-0.2c0.1-0.3,0.2-0.7,0.3-1c0.1-0.4,0.2-0.7,0.2-0.8c0-0.1,0-0.1,0-0.1
	c0,0,0,0,0,0c0,0,0,0,0,0c0,0,0.1,0,0.1,0c0.2,0,1.3,0,1.3,0c0.1,0,0.2-0.1,0.2-0.2S13,849.7,12.9,849.7z M8.3,853.5
	c-0.3,0-0.5,0.2-0.5,0.5c0,0.3,0.2,0.5,0.5,0.5c0.3,0,0.5-0.2,0.5-0.5C8.8,853.7,8.6,853.5,8.3,853.5z M8.3,854.1
	c-0.1,0-0.1-0.1-0.1-0.1c0-0.1,0.1-0.1,0.1-0.1c0.1,0,0.1,0.1,0.1,0.1C8.5,854.1,8.4,854.1,8.3,854.1z M10.5,853.5
	c-0.3,0-0.5,0.2-0.5,0.5c0,0.3,0.2,0.5,0.5,0.5c0.3,0,0.5-0.2,0.5-0.5C10.9,853.7,10.7,853.5,10.5,853.5z M10.5,854.1
	c-0.1,0-0.1-0.1-0.1-0.1c0-0.1,0.1-0.1,0.1-0.1s0.1,0.1,0.1,0.1C10.6,854.1,10.5,854.1,10.5,854.1z M10,846.9c-2.8,0-5,2.2-5,5
	s2.2,5,5,5s5-2.2,5-5S12.8,846.9,10,846.9z M13.3,855.2c-0.8,0.8-2,1.4-3.3,1.4s-2.5-0.5-3.3-1.4c-0.8-0.8-1.4-2-1.4-3.3
	s0.5-2.5,1.4-3.3c0.8-0.8,2-1.4,3.3-1.4s2.5,0.5,3.3,1.4c0.8,0.8,1.4,2,1.4,3.3S14.1,854.3,13.3,855.2z"/>
</svg>
