<?xml version="1.0" encoding="utf-8"?>
<!-- Generator: Adobe Illustrator 19.0.0, SVG Export Plug-In . SVG Version: 6.00 Build 0)  -->
<svg version="1.1" id="Layer_1" xmlns="http://www.w3.org/2000/svg" xmlns:xlink="http://www.w3.org/1999/xlink" x="0px" y="0px"
	 viewBox="0 841.9 20 20" style="enable-background:new 0 841.9 20 20;" xml:space="preserve">
<style type="text/css">
	.st0{fill:#FFFFFF;}
</style>
<path class="st0" d="M10,852.6H8c0.3,0.8,1.1,1.4,2,1.4c1.2,0,2.1-1,2.1-2.1s-1-2.1-2.1-2.1c-0.9,0-1.7,0.6-2,1.4h2
	c0.4,0,0.7,0.3,0.7,0.7C10.7,852.3,10.4,852.6,10,852.6z M10,855.4c-2,0-3.6-1.6-3.6-3.6c0-2,1.6-3.6,3.6-3.6c1.7,0,3.2,1.2,3.5,2.9
	H15c-0.3-2.4-2.4-4.3-4.9-4.3c-2.8,0-5,2.2-5,5s2.2,5,5,5c2.5,0,4.6-1.9,4.9-4.3h-1.4C13.2,854.2,11.8,855.4,10,855.4z"/>
</svg>
