<?xml version="1.0" encoding="utf-8"?>
<!-- Generator: Adobe Illustrator 19.0.0, SVG Export Plug-In . SVG Version: 6.00 Build 0)  -->
<svg version="1.1" id="Layer_1" xmlns="http://www.w3.org/2000/svg" xmlns:xlink="http://www.w3.org/1999/xlink" x="0px" y="0px"
	 viewBox="0 841.9 20 20" style="enable-background:new 0 841.9 20 20;" xml:space="preserve">
<style type="text/css">
	.st0{fill:#B40000;}
</style>
<path class="st0" d="M11.4,850.7l1,1l1.4-1.4l-1-1L11.4,850.7z M10.7,853.3l1.4-1.4l-1-1l-1.4,1.4L10.7,853.3z M11.9,854.5l1.4-1.4
	l-1-1l-1.4,1.4L11.9,854.5z M13.6,852.9l1.4-1.4l-1-1l-1.4,1.4L13.6,852.9z"/>
<g>
	<polygon class="st0" points="9.5,851.6 6.2,851.6 6.2,852.1 9,852.1 	"/>
	<polygon class="st0" points="10.9,850.2 5,850.2 5,850.7 10.4,850.7 	"/>
	<polygon class="st0" points="9.3,853 7.5,853 7.5,853.5 9.8,853.5 	"/>
</g>
</svg>
