<?xml version="1.0" encoding="utf-8"?>
<!-- Generator: Adobe Illustrator 19.0.0, SVG Export Plug-In . SVG Version: 6.00 Build 0)  -->
<svg version="1.1" id="Icons" xmlns="http://www.w3.org/2000/svg" xmlns:xlink="http://www.w3.org/1999/xlink" x="0px" y="0px"
	 viewBox="326 1329.9 20 20" style="enable-background:new 326 1329.9 20 20;" xml:space="preserve">
<path id="Facebook_1_" d="M334.7,1336.8c0,0.3,0,1.4,0,1.4h-1v1.7h1v5h2.1v-5h1.4c0,0,0.1-0.8,0.2-1.7c-0.2,0-1.6,0-1.6,0s0-1,0-1.1
	c0-0.2,0.2-0.4,0.4-0.4c0.2,0,0.7,0,1.1,0c0-0.2,0-1,0-1.7c-0.6,0-1.3,0-1.5,0C334.6,1334.9,334.7,1336.6,334.7,1336.8z"/>
</svg>
