<?xml version="1.0" encoding="utf-8"?>
<!-- Generator: Adobe Illustrator 19.0.0, SVG Export Plug-In . SVG Version: 6.00 Build 0)  -->
<svg version="1.1" id="Icons" xmlns="http://www.w3.org/2000/svg" xmlns:xlink="http://www.w3.org/1999/xlink" x="0px" y="0px"
	 viewBox="326 1329.9 20 20" style="enable-background:new 326 1329.9 20 20;" xml:space="preserve">
<path id="Google_1_" d="M336.9,1335.4h-2.4c-0.6,0-1.4,0.1-2.1,0.6c-0.5,0.4-0.8,1-0.8,1.6c0,0.9,0.7,1.8,1.9,1.8c0.1,0,0.2,0,0.4,0
	c-0.1,0.1-0.1,0.3-0.1,0.5c0,0.4,0.2,0.6,0.4,0.8c-0.5,0-1.5,0.1-2.2,0.5s-0.9,1-0.9,1.4c0,0.9,0.8,1.7,2.5,1.7c2,0,3.1-1.1,3.1-2.2
	c0-0.8-0.5-1.2-1-1.6l-0.4-0.3c-0.1-0.1-0.3-0.2-0.3-0.5c0-0.3,0.2-0.4,0.3-0.6c0.5-0.4,1-0.8,1-1.7c0-0.9-0.6-1.4-0.8-1.6h0.7
	L336.9,1335.4z M335.8,1342.6c0,0.7-0.6,1.3-1.7,1.3c-1.2,0-2.1-0.6-2.1-1.4c0-0.8,0.8-1.1,1-1.2c0.5-0.2,1.1-0.2,1.2-0.2
	s0.2,0,0.3,0C335.5,1341.7,335.8,1342,335.8,1342.6z M334.9,1338.8c-0.2,0.2-0.5,0.3-0.8,0.3c-1,0-1.5-1.3-1.5-2.1
	c0-0.3,0.1-0.6,0.3-0.9c0.2-0.2,0.5-0.4,0.8-0.4c1,0,1.5,1.3,1.5,2.2C335.2,1338.2,335.2,1338.5,334.9,1338.8z"/>
<polygon points="341,1337.7 339.7,1337.7 339.7,1336.4 339.2,1336.4 339.2,1337.7 337.9,1337.7 337.9,1338.3 339.2,1338.3 
	339.2,1339.6 339.7,1339.6 339.7,1338.3 341,1338.3 "/>
</svg>
