<?xml version="1.0" encoding="utf-8"?>
<!-- Generator: Adobe Illustrator 19.0.0, SVG Export Plug-In . SVG Version: 6.00 Build 0)  -->
<svg version="1.1" id="Layer_1" xmlns="http://www.w3.org/2000/svg" xmlns:xlink="http://www.w3.org/1999/xlink" x="0px" y="0px"
	 viewBox="0 0 20 20" style="enable-background:new 0 0 20 20;" xml:space="preserve">
<style type="text/css">
	.st0{fill:#FFFFFF;}
</style>
<path id="XMLID_4_" class="st0" d="M5.1,10.3c0,0,2.4-2.8,6.3-1.9c1.1,0.2,3.2,0.2,3.6-2.1c-0.7,0.7-1.1,0.7-2.2,0.4
	C12,6.6,11.7,7.2,11,7.1C9,6.8,7.6,7,5.8,9C5.1,9.6,4.8,10.3,5.1,10.3z"/>
<path id="XMLID_3_" class="st0" d="M7.8,8.6c1-0.2,2.6,0.2,3,0.6c-0.8-0.3-3.2-0.6-4.2,0C5.6,9.8,7.2,8.7,7.8,8.6z"/>
<path id="XMLID_2_" class="st0" d="M9.7,14.9c0,0,2.8-2.4,1.9-6.3c-0.2-1.1-0.2-3.2,2.1-3.6c-0.7,0.7-0.7,1.1-0.4,2.2
	C13.4,8,12.8,8.3,12.9,9c0.3,2,0.1,3.4-1.9,5.2C10.4,14.9,9.7,15.2,9.7,14.9z"/>
<path id="XMLID_1_" class="st0" d="M11.4,12.2c0.2-1-0.2-2.6-0.6-3c0.3,0.8,0.6,3.2,0,4.2C10.2,14.4,11.3,12.8,11.4,12.2z"/>
</svg>
