<?xml version="1.0" encoding="utf-8"?>
<!-- Generator: Adobe Illustrator 19.0.0, SVG Export Plug-In . SVG Version: 6.00 Build 0)  -->
<svg version="1.1" id="Layer_1" xmlns="http://www.w3.org/2000/svg" xmlns:xlink="http://www.w3.org/1999/xlink" x="0px" y="0px"
	 viewBox="0 0 20 20" style="enable-background:new 0 0 20 20;" xml:space="preserve">
<style type="text/css">
	.st0{fill:#B21F24;}
</style>
<g>
	<path id="XMLID_36_" class="st0" d="M10,14.9L10,14.9c0.2-0.3,0.4-0.4,0.7-0.5c0.3-0.1,0.6-0.1,1-0.1c0.4,0,0.8,0.1,1.1,0.1
		c0.2,0,0.3,0.1,0.4,0.1c0,0,0.1,0,0.1,0s0,0,0,0l0,0l0.7-1.2l0,0c-0.6-1-0.9-2-0.9-2.8c0-0.9,0.3-1.7,0.5-2.3
		c0.1-0.3,0.3-0.5,0.4-0.7c0.1-0.1,0.1-0.1,0.1-0.2c0,0,0,0,0,0c0,0,0,0,0,0l0,0l-0.7-1.3l0,0c0,0,0,0,0,0c-0.1,0-0.4,0.1-0.8,0.1
		c-0.3,0-0.6,0-1-0.2C11.4,5.6,11,5.4,10.8,5l0,0H10H9.2l0,0C9,5.4,8.6,5.6,8.3,5.8C8,5.9,7.6,6,7.3,6c-0.2,0-0.4,0-0.6-0.1
		c-0.1,0-0.1,0-0.2,0c0,0,0,0,0,0s0,0,0,0l0,0L5.8,7.1l0,0c0,0,0,0,0,0c0.1,0.2,1,1.4,1,3.2c0,0.9-0.2,1.8-0.9,2.8l0,0l0.7,1.2l0,0
		c0,0,0,0,0,0c0.2,0,0.9-0.2,1.6-0.2c0.3,0,0.7,0,1,0.1C9.6,14.5,9.8,14.7,10,14.9L10,14.9L10,14.9L10,14.9L10,14.9
		c-0.1-0.3-0.3-0.5-0.6-0.6c-0.3-0.1-0.7-0.1-1-0.1c-0.8,0-1.6,0.2-1.6,0.2l0,0l0,0L6,13.2l0,0l0,0c0.6-1,0.9-2,0.9-2.9
		c0-1.9-1.1-3.3-1.1-3.3l0,0l0,0l0.7-1.2l0,0l0,0C6.5,6,6.9,6,7.3,6c0.3,0,0.7,0,1-0.2c0.3-0.1,0.7-0.4,1-0.8l0,0v0H10h0.7v0l0,0
		c0.3,0.4,0.6,0.6,1,0.8C12,6,12.4,6,12.7,6C13.1,6,13.5,6,13.5,6l0,0l0,0l0.7,1.2l0,0l0,0c0,0-1.1,1.4-1.1,3.3
		c0,0.9,0.2,1.8,0.9,2.9l0,0l0,0l-0.7,1.2l0,0l0,0c0,0-0.8-0.2-1.6-0.2c-0.4,0-0.7,0-1,0.1C10.3,14.4,10.1,14.6,10,14.9L10,14.9
		L10,14.9L10,14.9z"/>
	<path id="XMLID_35_" class="st0" d="M10.1,14.1c-0.1,0-0.1,0.1-0.2,0.1l0,0.1l0-0.1c-0.1,0-0.1-0.1-0.2-0.1c0,0-0.1,0-0.1,0
		c0,0,0,0.1,0,0.1c0.1,0,0.1,0.1,0.2,0.1c0,0,0.1,0,0.1,0c0.1,0,0.1-0.1,0.2-0.1C10.2,14.2,10.2,14.1,10.1,14.1
		C10.2,14.1,10.2,14.1,10.1,14.1L10.1,14.1z"/>
	<path class="st0" d="M7.9,13.7c-0.1,0-0.3,0-0.4,0c0,0-0.1,0-0.1,0.1c0,0,0,0.1,0.1,0.1c0.1,0,0.3,0,0.4,0
		C7.9,13.9,8,13.9,7.9,13.7C8,13.8,7.9,13.7,7.9,13.7z M8.7,13.7c-0.1,0-0.2,0-0.4,0c0,0,0,0,0,0c0,0-0.1,0-0.1,0.1
		c0,0,0,0.1,0.1,0.1c0,0,0,0,0,0c0.1,0,0.2,0,0.4,0C8.7,13.9,8.7,13.9,8.7,13.7C8.8,13.8,8.7,13.7,8.7,13.7L8.7,13.7z M9.5,13.9
		c-0.1,0-0.2-0.1-0.4-0.1c0,0-0.1,0-0.1,0.1c0,0,0,0.1,0.1,0.1C9.2,14,9.3,14,9.4,14C9.5,14,9.5,14,9.5,13.9
		C9.5,14,9.5,13.9,9.5,13.9L9.5,13.9z"/>
	<path id="XMLID_31_" class="st0" d="M7.1,13.8c-0.1,0-0.2,0-0.2,0l0,0.1l0.1,0l-0.1-0.2c0,0-0.1,0-0.1,0c0,0,0,0.1,0,0.1L6.8,14
		c0,0,0,0,0.1,0C7,14,7,14,7.1,14C7.2,14,7.2,13.9,7.1,13.8C7.2,13.9,7.1,13.8,7.1,13.8L7.1,13.8z"/>
	<path id="XMLID_30_" class="st0" d="M6.7,13.4l-0.1-0.2l-0.1,0l0.1,0c0-0.1,0.1-0.1,0.1-0.2c0,0,0-0.1,0-0.1c0,0-0.1,0-0.1,0
		c0,0.1-0.1,0.1-0.1,0.2c0,0,0,0.1,0,0.1l0.1,0.2c0,0,0.1,0,0.1,0C6.7,13.5,6.7,13.4,6.7,13.4L6.7,13.4z"/>
	<path class="st0" d="M6.9,8.1C6.8,8,6.7,7.8,6.7,7.7c0,0-0.1-0.1-0.1,0c0,0-0.1,0.1,0,0.1C6.6,7.9,6.7,8,6.7,8.2
		C6.8,8.2,6.8,8.2,6.9,8.1C6.9,8.2,6.9,8.2,6.9,8.1z M7.2,9c0-0.1,0-0.1,0-0.1c0-0.1-0.1-0.2-0.1-0.3c0,0-0.1-0.1-0.1,0
		c0,0-0.1,0.1,0,0.1C6.9,8.7,7,8.8,7,8.9C7,9,7,9,7,9C7,9.1,7.1,9.1,7.2,9C7.1,9.1,7.2,9,7.2,9L7.2,9z M7.3,9.9c0-0.2,0-0.3-0.1-0.5
		c0,0,0-0.1-0.1-0.1c0,0-0.1,0-0.1,0.1c0,0.1,0,0.3,0.1,0.5C7.2,10,7.2,10,7.3,9.9C7.3,10,7.3,10,7.3,9.9L7.3,9.9z M7.3,10.9
		c0-0.2,0-0.3,0-0.5l0,0c0,0,0-0.1-0.1-0.1c0,0-0.1,0-0.1,0.1l0,0c0,0.1,0,0.3,0,0.5C7.2,10.9,7.2,10.9,7.3,10.9
		C7.3,10.9,7.3,10.9,7.3,10.9L7.3,10.9z M7.2,11.8c0-0.2,0.1-0.3,0.1-0.5c0,0,0-0.1-0.1-0.1c0,0-0.1,0-0.1,0.1
		c0,0.1-0.1,0.3-0.1,0.4C7,11.8,7,11.8,7.2,11.8C7.1,11.8,7.1,11.8,7.2,11.8z M6.9,12.7C6.9,12.5,7,12.4,7,12.2c0,0,0-0.1,0-0.1
		c0,0-0.1,0-0.1,0c-0.1,0.1-0.1,0.3-0.2,0.4C6.7,12.6,6.7,12.7,6.9,12.7C6.8,12.7,6.8,12.7,6.9,12.7L6.9,12.7z"/>
	<path id="XMLID_23_" class="st0" d="M6.5,7.3c0-0.1-0.1-0.1-0.1-0.2l-0.1,0l0.1,0L6.5,7c0,0,0-0.1,0-0.1c0,0-0.1,0-0.1,0L6.2,7.1
		c0,0,0,0.1,0,0.1c0,0.1,0.1,0.1,0.1,0.2C6.4,7.4,6.4,7.4,6.5,7.3C6.5,7.4,6.5,7.3,6.5,7.3L6.5,7.3z"/>
	<path id="XMLID_22_" class="st0" d="M6.7,6.6l0.1-0.2l-0.1,0l0,0.1c0.1,0,0.1,0,0.2,0c0,0,0.1,0,0.1-0.1c0,0,0-0.1-0.1-0.1
		c-0.1,0-0.1,0-0.2,0c0,0-0.1,0-0.1,0L6.6,6.5c0,0,0,0.1,0,0.1C6.6,6.6,6.7,6.6,6.7,6.6L6.7,6.6z"/>
	<path class="st0" d="M8.8,6.1C8.9,6.1,9,6,9.1,5.9c0,0,0-0.1,0-0.1c0,0-0.1,0-0.1,0C8.9,5.9,8.8,6,8.7,6C8.7,6,8.6,6.1,8.8,6.1
		C8.7,6.1,8.7,6.2,8.8,6.1L8.8,6.1z M8.1,6.4c0.1,0,0.2-0.1,0.4-0.1c0,0,0.1-0.1,0-0.1c0,0-0.1-0.1-0.1,0C8.3,6.2,8.1,6.2,8,6.3
		C8,6.3,8,6.3,8.1,6.4C8,6.4,8,6.4,8.1,6.4L8.1,6.4z M7.3,6.5L7.3,6.5c0.1,0,0.2,0,0.4,0c0,0,0.1,0,0.1-0.1c0,0,0-0.1-0.1-0.1
		c-0.1,0-0.2,0-0.4,0l0,0C7.3,6.3,7.2,6.4,7.3,6.5C7.2,6.5,7.3,6.5,7.3,6.5L7.3,6.5z"/>
	<path id="XMLID_18_" class="st0" d="M9.4,5.7c0.1-0.1,0.1-0.1,0.1-0.2l-0.1,0v0.1h0.2c0,0,0.1,0,0.1-0.1s0-0.1-0.1-0.1H9.4
		c0,0,0,0-0.1,0c0,0.1-0.1,0.1-0.1,0.2c0,0,0,0.1,0,0.1C9.3,5.7,9.3,5.7,9.4,5.7L9.4,5.7z"/>
	<path id="XMLID_17_" class="st0" d="M10.3,5.5h0.2V5.5l-0.1,0c0.1,0.1,0.1,0.1,0.1,0.2c0,0,0.1,0,0.1,0c0,0,0-0.1,0-0.1
		c-0.1-0.1-0.1-0.1-0.1-0.2c0,0,0,0-0.1,0h-0.2C10.3,5.4,10.2,5.4,10.3,5.5C10.2,5.5,10.3,5.5,10.3,5.5L10.3,5.5z"/>
	<path class="st0" d="M12.3,6.5c0.1,0,0.3,0,0.4,0c0,0,0.1,0,0.1-0.1c0,0,0-0.1-0.1-0.1c-0.1,0-0.2,0-0.4,0
		C12.3,6.3,12.2,6.3,12.3,6.5C12.2,6.4,12.3,6.5,12.3,6.5L12.3,6.5z M11.6,6.3c0.1,0,0.2,0.1,0.4,0.1c0,0,0.1,0,0.1-0.1
		c0,0,0-0.1-0.1-0.1c-0.1,0-0.2-0.1-0.3-0.1C11.6,6.1,11.5,6.2,11.6,6.3C11.5,6.2,11.5,6.3,11.6,6.3z M10.9,5.9
		C11,6,11.1,6.1,11.2,6.1c0,0,0.1,0,0.1,0c0,0,0-0.1,0-0.1C11.2,6,11.1,5.9,11,5.8c0,0-0.1,0-0.1,0C10.9,5.9,10.9,5.9,10.9,5.9
		L10.9,5.9z"/>
	<path id="XMLID_13_" class="st0" d="M13,6.5c0.1,0,0.2,0,0.2,0l0-0.1l-0.1,0l0.1,0.2c0,0,0.1,0,0.1,0c0,0,0-0.1,0-0.1l-0.1-0.2
		c0,0,0,0-0.1,0c-0.1,0-0.1,0-0.2,0C13,6.3,13,6.4,13,6.5C13,6.4,13,6.5,13,6.5L13,6.5z"/>
	<path id="XMLID_12_" class="st0" d="M13.5,7l0.1,0.2l0.1,0l-0.1,0c0,0.1-0.1,0.1-0.1,0.2c0,0,0,0.1,0,0.1c0,0,0.1,0,0.1,0
		c0-0.1,0.1-0.1,0.1-0.2c0,0,0-0.1,0-0.1l-0.1-0.2C13.6,6.9,13.6,6.9,13.5,7C13.5,6.9,13.5,7,13.5,7L13.5,7z"/>
	<path class="st0" d="M13,12.2c0.1,0.1,0.1,0.3,0.2,0.4c0,0,0.1,0.1,0.1,0s0.1-0.1,0-0.1c-0.1-0.1-0.1-0.3-0.2-0.4
		C13.1,12.1,13,12.1,13,12.2C13,12.2,12.9,12.2,13,12.2L13,12.2z M12.7,11.3c0,0.2,0.1,0.3,0.1,0.5c0,0,0.1,0.1,0.1,0.1
		c0,0,0.1-0.1,0.1-0.1c0-0.2-0.1-0.3-0.1-0.4C12.9,11.3,12.8,11.2,12.7,11.3C12.7,11.3,12.7,11.3,12.7,11.3z M12.6,10.4L12.6,10.4
		c0,0.2,0,0.3,0,0.5c0,0,0,0.1,0.1,0.1c0,0,0.1,0,0.1-0.1c0-0.2,0-0.3,0-0.5l0,0C12.8,10.3,12.8,10.3,12.6,10.4
		C12.7,10.3,12.6,10.4,12.6,10.4L12.6,10.4z M12.7,9.5c0,0.2,0,0.3-0.1,0.5c0,0,0,0.1,0.1,0.1c0,0,0.1,0,0.1-0.1
		c0-0.2,0-0.3,0.1-0.5C12.9,9.4,12.8,9.4,12.7,9.5C12.8,9.4,12.7,9.4,12.7,9.5z M12.9,8.6c0,0.1-0.1,0.2-0.1,0.3c0,0,0,0.1,0,0.1
		c0,0,0,0.1,0.1,0.1c0,0,0.1,0,0.1-0.1C13,9,13,9,13,8.9c0-0.1,0.1-0.2,0.1-0.3C13.1,8.6,13.1,8.5,12.9,8.6C13,8.5,13,8.5,12.9,8.6
		L12.9,8.6z M13.3,7.7c-0.1,0.1-0.1,0.3-0.2,0.4c0,0,0,0.1,0,0.1c0,0,0.1,0,0.1,0c0.1-0.2,0.1-0.3,0.2-0.4
		C13.4,7.7,13.4,7.7,13.3,7.7C13.4,7.6,13.3,7.7,13.3,7.7L13.3,7.7z"/>
	<path id="XMLID_5_" class="st0" d="M13.3,13.1c0,0.1,0.1,0.1,0.1,0.2l0.1,0l-0.1,0l-0.1,0.2c0,0,0,0.1,0,0.1c0,0,0.1,0,0.1,0
		l0.1-0.2c0,0,0-0.1,0-0.1c0-0.1-0.1-0.1-0.1-0.2c0,0-0.1-0.1-0.1,0C13.3,13,13.3,13.1,13.3,13.1L13.3,13.1z"/>
	<path id="XMLID_4_" class="st0" d="M13.1,13.7L13,13.9l0.1,0l0-0.1c-0.1,0-0.1,0-0.2,0c0,0-0.1,0-0.1,0.1c0,0,0,0.1,0.1,0.1
		c0.1,0,0.2,0,0.2,0c0,0,0.1,0,0.1,0l0.1-0.2C13.3,13.8,13.3,13.7,13.1,13.7C13.2,13.7,13.1,13.7,13.1,13.7L13.1,13.7z"/>
	<path class="st0" d="M10.9,13.8c-0.1,0-0.3,0.1-0.4,0.1c0,0-0.1,0.1,0,0.1c0,0,0.1,0.1,0.1,0c0.1,0,0.2-0.1,0.4-0.1
		C11,13.9,11,13.9,10.9,13.8C11,13.8,10.9,13.8,10.9,13.8L10.9,13.8z M11.7,13.7C11.7,13.7,11.7,13.7,11.7,13.7c-0.2,0-0.3,0-0.4,0
		c0,0-0.1,0-0.1,0.1c0,0,0,0.1,0.1,0.1c0.1,0,0.2,0,0.4,0c0,0,0,0,0,0C11.7,13.9,11.8,13.8,11.7,13.7C11.8,13.8,11.7,13.7,11.7,13.7
		L11.7,13.7z M12.5,13.8c-0.1,0-0.3,0-0.4,0c0,0-0.1,0-0.1,0.1c0,0,0,0.1,0.1,0.1c0.1,0,0.3,0,0.4,0C12.5,13.9,12.5,13.9,12.5,13.8
		C12.6,13.8,12.5,13.8,12.5,13.8L12.5,13.8z"/>
</g>
</svg>
