<?xml version="1.0" encoding="utf-8"?>
<!-- Generator: Adobe Illustrator 19.0.0, SVG Export Plug-In . SVG Version: 6.00 Build 0)  -->
<svg version="1.1" id="Layer_1" xmlns="http://www.w3.org/2000/svg" xmlns:xlink="http://www.w3.org/1999/xlink" x="0px" y="0px"
	 viewBox="0 0 20 20" style="enable-background:new 0 0 20 20;" xml:space="preserve">
<style type="text/css">
	.st0{fill:#FFFFFF;}
</style>
<path class="st0" d="M8.7,6.5C8.8,6.5,8.8,6.5,8.7,6.5C8.9,6.4,9,6.4,9.1,6.3c0.1,0,0.2,0,0.2,0.1c0,0.1,0.3,0.9,0.5,1.4
	C9.8,7.9,9.8,8,9.8,8c0,0-0.1,0.2-0.1,0.3C9.6,8.7,9.4,9.4,9.4,9.4c0.2-0.4,0.4-0.9,0.4-1c0-0.1,0.1-0.2,0.2-0.3l0,0l0,0
	c0,0,0.1,0.2,0.2,0.3c0,0.1,0.2,0.6,0.4,1c0,0-0.2-0.7-0.3-1.1c0-0.1-0.1-0.2-0.1-0.3c0,0,0-0.1-0.1-0.2c0.2-0.4,0.5-1.3,0.5-1.4
	c0-0.1,0.1-0.2,0.2-0.1c0.1,0,0.2,0.1,0.3,0.1c0,0,0,0,0.1,0c0.3,0.1,0.7-0.2,0.8-0.6c0.1-0.4-0.1-0.8-0.5-0.9
	c-0.3-0.1-0.6,0.1-0.7,0.5c-0.2,0.6-0.6,1.8-0.6,1.8c0,0,0,0-0.1,0.1c0,0,0,0,0,0c0,0,0,0-0.1,0.1c0,0,0,0,0,0c0,0,0,0,0,0
	c0,0,0,0-0.1-0.1c0,0,0,0,0,0c0,0-0.1,0-0.1-0.1c0,0-0.4-1.2-0.6-1.8C9,5.2,8.7,4.9,8.4,5C8.1,5.1,7.9,5.5,8,5.9
	C8,6.3,8.4,6.6,8.7,6.5z M10.9,5.6C11,5.3,11.3,5,11.6,5.1S12,5.5,12,5.9c-0.1,0.4-0.4,0.6-0.7,0.5C11,6.3,10.8,6,10.9,5.6z M10,7.8
	C10,7.8,10.1,7.8,10,7.8C10.1,7.9,10,8,10,8C10,8,9.9,7.9,10,7.8C9.9,7.8,10,7.8,10,7.8z M8.4,5.1C8.7,5,9,5.3,9.1,5.6
	C9.2,6,9,6.3,8.7,6.4C8.4,6.4,8.1,6.2,8,5.9C8,5.5,8.1,5.2,8.4,5.1z M10.3,10.5l0,0.6c0,0.1,0,0.1,0.1,0.1h0.1v-0.1h-0.1
	c0,0,0,0,0,0l-0.1-0.9h-0.1L10,10.7c0,0,0,0.1,0,0.1l0,0c0,0,0-0.1,0-0.1l-0.3-0.6H9.5L9.5,11c0,0,0,0,0,0H9.4v0.1h0.1
	c0.1,0,0.1,0,0.1-0.1l0-0.6c0-0.1,0-0.1,0-0.1l0,0c0,0,0,0.1,0.1,0.1L9.9,11H10L10.3,10.5c0,0,0-0.1,0-0.1l0,0
	C10.3,10.3,10.3,10.4,10.3,10.5z M10.3,12.3l0,0.6c0,0.1,0,0.1,0.1,0.1h0.2v-0.2h-0.1c0,0,0,0,0,0l-0.1-1.1h-0.3L10,12.4
	c0,0.1-0.1,0.2-0.1,0.2h0c0,0,0-0.1-0.1-0.2l-0.3-0.6H9.3l-0.1,1.1c0,0,0,0,0,0H9.1V13h0.2c0.1,0,0.1,0,0.1-0.1l0-0.6
	c0-0.1,0-0.2,0-0.2h0c0,0,0,0.1,0.1,0.2l0.2,0.5H10L10.3,12.3c0-0.1,0-0.2,0-0.2h0C10.3,12.1,10.3,12.2,10.3,12.3z M10.7,7.7v0.1H12
	v5.8l-2,1.2l-2-1.2V7.8h1.4V7.7H7.8v6L10,15l2.2-1.3v-6H10.7z"/>
</svg>
