<?xml version="1.0" encoding="utf-8"?>
<!-- Generator: Adobe Illustrator 19.0.0, SVG Export Plug-In . SVG Version: 6.00 Build 0)  -->
<svg version="1.1" id="Layer_1" xmlns="http://www.w3.org/2000/svg" xmlns:xlink="http://www.w3.org/1999/xlink" x="0px" y="0px"
	 viewBox="0 0 20 20" style="enable-background:new 0 0 20 20;" xml:space="preserve">
<style type="text/css">
	.st0{fill:#FFFFFF;}
</style>
<path class="st0" d="M8.6,7c0.1,0.3,0.3,0.5,0.5,0.4c0,0,0,0,0,0c0.1,0,0.2-0.1,0.2-0.1c0.1,0,0.1,0,0.2,0.1c0,0.1,0.2,0.7,0.3,1
	c0,0.1-0.1,0.1-0.1,0.1c0,0,0,0.1-0.1,0.2C9.7,9,9.6,9.5,9.6,9.5c0.1-0.3,0.3-0.7,0.3-0.7c0-0.1,0.1-0.2,0.1-0.2l0,0l0,0
	c0,0,0.1,0.1,0.1,0.2c0,0.1,0.2,0.4,0.3,0.7c0,0-0.1-0.5-0.2-0.8c0-0.1,0-0.2-0.1-0.2c0,0,0-0.1-0.1-0.1c0.1-0.3,0.3-0.9,0.3-1
	c0-0.1,0.1-0.1,0.2-0.1c0.1,0,0.2,0.1,0.2,0.1c0,0,0,0,0,0c0.2,0.1,0.5-0.1,0.5-0.4c0.1-0.3-0.1-0.6-0.3-0.6c-0.2,0-0.4,0.1-0.5,0.4
	C10.4,7.1,10.1,8,10.1,8c0,0,0,0,0,0c0,0,0,0,0,0c0,0,0,0,0,0c0,0,0,0,0,0c0,0,0,0,0,0c0,0,0,0,0,0c0,0,0,0,0,0c0,0,0,0,0,0
	c0,0-0.3-0.8-0.5-1.2C9.3,6.5,9.1,6.3,8.9,6.4C8.6,6.4,8.5,6.7,8.6,7z M10.6,6.8c0.1-0.2,0.3-0.4,0.5-0.4c0.2,0,0.3,0.3,0.3,0.5
	c-0.1,0.2-0.3,0.4-0.5,0.4C10.7,7.3,10.6,7,10.6,6.8z M10,8.3C10,8.3,10,8.4,10,8.3c0.1,0.1,0,0.1,0,0.1S9.9,8.4,10,8.3
	C9.9,8.4,10,8.3,10,8.3z M9.4,6.8C9.4,7,9.3,7.3,9.1,7.3C8.9,7.4,8.7,7.2,8.6,7C8.6,6.7,8.7,6.5,8.9,6.4C9.1,6.4,9.3,6.5,9.4,6.8z
	 M10.5,8.3L10.5,8.3l4.2,0.1v4.2L10,14.9l-4.7-2.3V8.4h4.2V8.3H5.2v4.3L10,15l4.8-2.4V8.3H10.5z M9.9,10.5c0-0.2-0.3-0.2-0.3-0.3
	c0-0.1,0.1-0.1,0.1-0.1c0.1,0,0.1,0,0.1,0.1v0h0.1v0C9.9,10,9.8,10,9.7,10c-0.1,0-0.2,0.1-0.2,0.2C9.5,10.4,9.9,10.4,9.9,10.5
	c-0.1,0.1-0.1,0.1-0.2,0.1c-0.1,0-0.2-0.1-0.2-0.1l0,0.1c0,0,0.1,0.1,0.2,0.1C9.9,10.7,9.9,10.6,9.9,10.5z M8.4,10.2l0,0.4
	c0,0,0,0.1,0.1,0.1h0.1v-0.1h0c0,0,0,0,0,0l0-0.6H8.4l-0.2,0.4c0,0,0,0.1,0,0.1l0,0c0,0,0,0,0-0.1L8,10H7.9l0,0.6c0,0,0,0,0,0h0v0.1
	h0.1c0,0,0.1,0,0.1-0.1l0-0.4c0,0,0-0.1,0-0.1l0,0c0,0,0,0.1,0,0.1l0.2,0.3h0.1L8.4,10.2C8.4,10.2,8.4,10.1,8.4,10.2L8.4,10.2
	C8.4,10.1,8.4,10.2,8.4,10.2z M9.4,10.7L9.4,10.7L9.4,10.7C9.3,10.6,9.3,10.6,9.4,10.7L9.1,10H9l-0.2,0.6c0,0,0,0,0,0h0v0.1h0
	c0,0,0.1,0,0.1-0.1l0.1-0.2h0.3l0.1,0.2C9.3,10.7,9.3,10.7,9.4,10.7L9.4,10.7z M8.9,10.4L9,10.2c0,0,0-0.1,0-0.1l0,0
	c0,0,0,0.1,0,0.1l0.1,0.2H8.9z M10.6,10h-0.5c0,0-0.1,0-0.1,0.1v0.1h0.1v0c0,0,0,0,0,0h0.2v0.6h0.1v-0.6L10.6,10
	C10.6,10.1,10.6,10.1,10.6,10l0,0.1h0.1L10.6,10C10.7,10,10.7,10,10.6,10z M12,10.2c0-0.1-0.1-0.2-0.2-0.2h-0.3v0.1h0.1v0.6h0.1
	v-0.3h0.1c0,0,0.1,0,0.1,0l0.1,0.2c0,0,0,0.1,0.1,0.1h0v-0.1h0c0,0,0,0,0,0l-0.1-0.2c0,0,0,0,0,0l0,0C11.9,10.4,12,10.3,12,10.2z
	 M11.8,10.3h-0.2v-0.3h0.2c0.1,0,0.1,0.1,0.1,0.1C11.9,10.3,11.9,10.3,11.8,10.3z M11.3,10.1L11.3,10.1c0-0.1,0-0.1-0.1-0.1h-0.4
	v0.1h0.1v0.6c0,0,0,0.1,0.1,0.1h0.3c0,0,0.1,0,0.1-0.1v-0.1h-0.1v0c0,0,0,0,0,0H11c0,0,0,0,0,0v-0.2h0.3v-0.1H11v-0.2L11.3,10.1
	C11.2,10.1,11.2,10.1,11.3,10.1L11.3,10.1L11.3,10.1L11.3,10.1z M10.3,13C10.3,13,10.3,13,10.3,13c-0.1,0.1-0.1,0.1-0.1,0.2
	s0,0.1,0,0.1c0,0,0,0,0.1,0c0,0,0.1,0,0.1,0c0,0,0-0.1,0-0.1S10.4,13.1,10.3,13C10.4,13,10.4,13,10.3,13z M10.4,13.2
	C10.4,13.2,10.4,13.2,10.4,13.2L10.4,13.2L10.4,13.2L10.4,13.2l-0.1,0c0,0,0,0,0,0c0,0,0,0,0,0c0,0,0,0,0,0c0,0,0,0,0,0l0,0l0,0l0,0
	l0,0C10.4,13.1,10.4,13.1,10.4,13.2C10.4,13.1,10.4,13.1,10.4,13.2C10.4,13.2,10.4,13.2,10.4,13.2z M10.1,13.1L10.1,13.1L10.1,13.1
	L10.1,13.1L10,13.2l0,0l0,0v0v0h0.2v0H10l0,0l0,0L10.1,13.1L10.1,13.1L10.1,13.1L10.1,13.1L10.1,13.1L10.1,13.1
	c0.1-0.1,0.1-0.1,0-0.1c0,0,0,0-0.1,0l0,0l0,0l0,0l0,0L10.1,13.1L10.1,13.1L10.1,13.1L10.1,13.1L10.1,13.1L10.1,13.1L10.1,13.1
	L10.1,13.1L10.1,13.1L10.1,13.1L10.1,13.1z M10.9,13.3L10.9,13.3L10.9,13.3l0-0.1h0V13h0c0,0,0,0,0,0c0,0,0,0,0,0.1c0,0,0,0,0,0.1
	c0,0,0,0,0,0v0L10.9,13.3L10.9,13.3L10.9,13.3L10.9,13.3z M10.8,13.2L10.8,13.2L10.8,13.2l0.1-0.1l0,0L10.8,13.2L10.8,13.2
	L10.8,13.2z M10.6,13.3V13h0c0,0,0,0,0,0c0,0,0,0,0,0l0,0l0,0l0,0l0,0l0,0L10.6,13.3L10.6,13.3L10.6,13.3z M9.4,13.3
	C9.4,13.3,9.4,13.3,9.4,13.3L9.4,13.3L9.4,13.3L9.4,13.3L9.4,13.3L9.4,13.3L9.4,13.3C9.4,13.3,9.5,13.3,9.4,13.3
	c0.1,0,0.1,0,0.1-0.1c0,0,0,0,0,0l0,0l0,0l0,0l0,0l0,0l0,0l0,0l0,0l0,0l0,0h0c0,0,0,0,0,0l0,0l0,0c0,0,0,0,0,0c0,0,0,0-0.1,0
	c0,0-0.1,0-0.1,0c0,0,0,0,0,0.1l0,0l0,0l0,0l0,0L9.4,13.3L9.4,13.3L9.4,13.3L9.4,13.3C9.5,13.3,9.5,13.3,9.4,13.3z M9.7,13.3V13h0.1
	v0H9.5v0h0.1L9.7,13.3L9.7,13.3z M9.8,13.3L9.8,13.3L9.8,13.3L9.8,13.3L9.8,13.3L9.8,13.3L9.8,13.3L9.8,13.3L9.8,13.3z M9.3,13.3
	H9.1v-0.1h0.1v0H9.1V13h0.1v0H9.1v0.3L9.3,13.3L9.3,13.3L9.3,13.3z M6.7,11.5l0,0.4c0,0.1,0,0.1,0.1,0.1H7v-0.1h0c0,0,0,0,0,0
	l-0.1-0.8H6.7l-0.2,0.4c0,0.1,0,0.1,0,0.1l0,0c0,0,0-0.1,0-0.1l-0.2-0.4H6L6,11.9c0,0,0,0,0,0h0V12h0.2c0.1,0,0.1,0,0.1-0.1l0-0.4
	c0-0.1,0-0.1,0-0.1l0,0c0,0,0,0.1,0.1,0.1l0.2,0.3h0.1L6.7,11.5c0-0.1,0-0.1,0-0.1l0,0C6.7,11.4,6.7,11.5,6.7,11.5z M9.1,12v-0.8
	c0,0,0,0,0,0h0.1v-0.1H9c-0.1,0-0.1,0-0.1,0.1v0.4c0,0.1,0,0.1,0,0.1l0,0c0,0,0-0.1-0.1-0.1l-0.4-0.5H8.4v0.8c0,0,0,0,0,0H8.3V12
	h0.2c0.1,0,0.1,0,0.1-0.1v-0.4c0-0.1,0-0.1,0-0.1l0,0c0,0,0,0.1,0.1,0.1L9,12L9.1,12L9.1,12z M9.8,11.9L9.8,11.9l-0.1-0.6h0.1v-0.1
	H9.5v0.1h0.1v0.6H9.5V12h0.3V11.9z M13,11.4c0-0.2-0.1-0.3-0.3-0.3h-0.4v0.1h0.1V12h0.2v-0.3h0.1c0.1,0,0.1,0,0.1,0l0.1,0.2
	c0,0.1,0.1,0.1,0.1,0.1H13v-0.1h0c0,0-0.1,0-0.1,0l-0.1-0.2c0,0,0,0,0,0l0,0C12.8,11.6,13,11.5,13,11.4z M12.6,11.5h-0.1v-0.3h0.1
	c0.1,0,0.1,0.1,0.1,0.1C12.8,11.5,12.7,11.5,12.6,11.5z M13.9,11.3v-0.1c0-0.1,0-0.1-0.1-0.1h-0.6v0.1h0.1v0.7c0,0.1,0,0.1,0.1,0.1
	h0.4c0.1,0,0.1,0,0.1-0.1v-0.1h-0.2v0.1c0,0,0,0,0,0h-0.2c0,0,0,0,0,0v-0.2h0.3v-0.1h-0.3v-0.2h0.2c0,0,0,0,0,0v0.1L13.9,11.3
	L13.9,11.3z M10.5,11.1c-0.3,0-0.5,0.2-0.5,0.5c0,0.3,0.2,0.5,0.5,0.5c0.2,0,0.4-0.2,0.4-0.2l-0.1-0.1c0,0-0.1,0.1-0.3,0.1
	c-0.2,0-0.3-0.1-0.3-0.3c0-0.2,0.1-0.3,0.3-0.3c0.1,0,0.2,0,0.2,0.1v0.1h0.2v-0.1C10.9,11.1,10.6,11.1,10.5,11.1z M11.3,11.1h-0.2
	v0.1h0.1c0,0,0,0,0,0v0.4c0,0.2,0.1,0.3,0.4,0.3s0.4-0.1,0.4-0.3v-0.4c0,0,0,0,0,0H12v-0.1h-0.2c-0.1,0-0.1,0-0.1,0.1v0.5
	c0,0.1-0.1,0.2-0.2,0.2s-0.2-0.1-0.2-0.2L11.3,11.1C11.4,11.1,11.3,11.1,11.3,11.1z M7.5,11.1l-0.3,0.8c0,0,0,0,0,0h0V12h0.1
	c0.1,0,0.1,0,0.1-0.1l0.1-0.2h0.3L7.8,12C7.9,12,7.9,12,8,12h0.1v-0.1h0c0,0,0,0,0,0l-0.3-0.8H7.5z M7.5,11.6l0.1-0.2
	c0-0.1,0-0.1,0-0.1l0,0c0,0,0,0.1,0,0.1l0.1,0.2H7.5z M12.1,13.2l-0.1,0h0v0c0,0,0,0,0,0c0,0,0,0,0,0v0h-0.8v0h0.8v0c0,0,0,0,0,0
	c0,0,0,0,0,0v0h0L12.1,13.2z M8.9,13.2H8.1v0c0,0,0,0,0,0s0,0,0,0v0h0l-0.1,0l0.1,0h0v0c0,0,0,0,0,0s0,0,0,0v0L8.9,13.2L8.9,13.2z
	 M10.7,5.5C10.7,5.5,10.7,5.5,10.7,5.5c0.1,0,0.2,0,0.2,0c0,0,0,0,0.1-0.1c0,0,0-0.1,0-0.1c0,0,0-0.1,0-0.1c0,0,0-0.1,0-0.1
	c0,0,0,0-0.1-0.1c0,0-0.1,0-0.1,0c0,0,0,0-0.1,0c0,0,0,0-0.1,0l-0.1,0.4C10.6,5.5,10.6,5.5,10.7,5.5C10.6,5.5,10.7,5.5,10.7,5.5z
	 M10.7,5.1L10.7,5.1C10.7,5.1,10.7,5.1,10.7,5.1c0.1,0,0.2,0,0.2,0.1c0,0,0,0.1,0,0.1c0,0.1,0,0.1-0.1,0.1c0,0-0.1,0-0.1,0
	c0,0,0,0,0,0l0,0L10.7,5.1z M13.5,6.7L13.5,6.7l-0.1-0.2l0.2-0.3l0,0l-0.3,0.3L13.5,6.7z M10.1,5.4C10.1,5.4,10.1,5.4,10.1,5.4
	c0.1,0.1,0.1,0.1,0.1,0.1s0.1,0,0.1,0c0,0,0,0,0.1,0c0,0,0,0,0-0.1c0,0,0-0.1,0-0.1c0,0,0-0.1,0-0.1c0,0,0-0.1,0-0.1c0,0,0,0-0.1,0
	c0,0-0.1,0-0.1,0c0,0-0.1,0-0.1,0c0,0,0,0-0.1,0c0,0,0,0,0,0.1c0,0,0,0.1,0,0.1C10,5.3,10,5.3,10.1,5.4C10.1,5.4,10.1,5.4,10.1,5.4z
	 M10.1,5.2C10.1,5.1,10.1,5.1,10.1,5.2C10.1,5.1,10.2,5.1,10.1,5.2c0.1-0.1,0.1-0.1,0.1-0.1c0,0,0,0,0.1,0c0,0,0,0,0,0
	c0,0,0,0,0,0.1c0,0,0,0,0,0.1c0,0,0,0.1,0,0.1c0,0,0,0,0,0.1c0,0,0,0,0,0c0,0,0,0-0.1,0s0,0-0.1,0c0,0,0,0,0,0c0,0,0,0,0-0.1
	C10.1,5.3,10.1,5.2,10.1,5.2C10.1,5.2,10.1,5.2,10.1,5.2z M11.1,5.5C11.1,5.5,11.1,5.5,11.1,5.5c0.1,0.1,0.1,0.1,0.1,0.1
	s0.1,0,0.1,0c0,0,0,0,0.1,0c0,0,0,0,0,0c0,0,0,0,0-0.1l0.1-0.3l-0.1,0l-0.1,0.3c0,0,0,0,0,0.1c0,0,0,0,0,0l0,0c0,0,0,0,0,0
	C11.2,5.5,11.2,5.5,11.1,5.5c0.1,0,0-0.1,0.1-0.1l0.1-0.3l-0.1,0l-0.1,0.3C11.1,5.4,11.1,5.4,11.1,5.5C11.1,5.5,11.1,5.5,11.1,5.5z
	 M11.9,5.8L11.9,5.8L11.9,5.8C12,5.8,12,5.8,11.9,5.8c0.1,0.1,0.2,0.1,0.2,0.1c0,0,0.1,0,0.1-0.1c0,0,0,0,0-0.1s0,0,0,0c0,0,0,0,0,0
	c0,0,0,0,0,0l0,0l0,0l0,0l0,0l0,0l0,0h0l0,0c0,0,0,0,0.1,0c0,0,0,0,0,0l0,0c0,0,0,0,0,0c0,0,0,0-0.1,0c0,0-0.1,0-0.1,0
	c0,0-0.1,0-0.1,0.1c0,0,0,0,0,0c0,0,0,0,0,0l0,0l0,0l0,0l0,0l0,0l0,0c0,0-0.1,0-0.1,0C12,5.8,12,5.8,11.9,5.8
	C11.9,5.7,11.9,5.7,11.9,5.8L11.9,5.8L11.9,5.8z M11.6,5.7C11.6,5.7,11.7,5.7,11.6,5.7c0.1,0,0.1,0.1,0.1,0.1c0,0,0,0,0,0h0h0V5.7
	c0,0,0,0,0,0C11.7,5.7,11.7,5.7,11.6,5.7C11.7,5.7,11.7,5.7,11.6,5.7C11.6,5.6,11.6,5.6,11.6,5.7c0-0.1,0-0.1,0-0.1c0,0,0,0,0-0.1
	c0,0,0,0,0-0.1c0,0,0,0,0,0c0,0,0,0,0.1,0c0,0,0,0,0.1,0l0,0l0,0l0,0l0,0l0,0l0,0l0,0l0,0c0,0,0,0,0,0c0,0-0.1,0-0.1,0s-0.1,0-0.1,0
	c0,0,0,0-0.1,0.1c0,0,0,0.1,0,0.1c0,0,0,0.1,0,0.1C11.5,5.6,11.5,5.6,11.6,5.7C11.6,5.6,11.6,5.7,11.6,5.7z M12.9,6.3L13.1,6
	c0,0,0,0,0,0.1s0,0,0,0.1c0,0,0,0.1,0,0.1c0,0,0,0.1,0,0.1c0,0,0,0,0,0.1c0,0,0,0,0,0.1l0,0l0.2-0.4l-0.1,0l-0.2,0.3
	c0,0,0-0.1,0-0.1c0,0,0-0.1,0-0.1c0,0,0-0.1,0-0.1c0,0,0-0.1,0-0.1l0,0L12.9,6.3L12.9,6.3z M12.5,6.1C12.6,6.1,12.6,6.1,12.5,6.1
	c0.1,0.1,0.1,0.1,0.1,0.1c0,0,0.1,0,0.1,0c0,0,0.1,0,0.1,0c0,0,0,0,0.1-0.1c0,0,0-0.1,0-0.1c0,0,0-0.1,0-0.1c0,0,0,0,0-0.1
	c0,0,0,0-0.1-0.1c0,0-0.1,0-0.1,0c0,0-0.1,0-0.1,0c0,0-0.1,0-0.1,0c0,0,0,0-0.1,0.1c0,0,0,0.1,0,0.1C12.5,5.9,12.5,6,12.5,6.1
	C12.5,6,12.5,6,12.5,6.1z M12.6,5.9C12.6,5.9,12.6,5.9,12.6,5.9c0-0.1,0.1-0.1,0.1-0.1c0,0,0,0,0.1,0c0,0,0,0,0.1,0c0,0,0,0,0.1,0
	c0,0,0,0,0,0c0,0,0,0,0,0.1s0,0,0,0.1s0,0,0,0.1c0,0,0,0,0,0.1c0,0,0,0-0.1,0c0,0,0,0-0.1,0c0,0,0,0-0.1,0c0,0,0,0,0,0
	C12.6,6,12.6,6,12.6,5.9C12.6,6,12.6,5.9,12.6,5.9z M13.7,6.8l0.1-0.1c0.1,0,0.1,0,0.1,0c0,0,0.1,0,0.1,0l-0.1,0c0,0-0.1,0-0.1,0
	c0,0-0.1,0-0.1,0c0,0,0-0.1,0-0.1c0,0,0-0.1,0-0.1l-0.1,0c0,0,0,0.1,0,0.1c0,0,0,0.1,0,0.2L13.7,6.8L13.7,6.8z M7,6.3L6.8,6L6.7,6
	L7,6.3L7,6.3z M7,6.1C7,6.1,7.1,6.1,7,6.1c0.1,0.1,0.1,0.1,0.1,0.1c0,0,0.1,0,0.1,0c0,0,0.1,0,0.1,0l0,0l0,0l0,0l0,0L7.3,5.9l-0.1,0
	l0.1,0.1l0,0c0,0,0,0,0,0c0,0,0,0-0.1,0c0,0,0,0-0.1,0C7.2,6.1,7.1,6.1,7,6.1C7.1,6.1,7.1,6,7,6.1C7.1,6,7.1,6,7,6c0,0,0,0,0-0.1
	c0,0,0,0,0-0.1c0,0,0,0,0,0c0,0,0,0,0.1,0c0,0,0,0,0.1,0l0-0.1h0l0,0c0,0,0,0,0,0c0,0,0,0,0,0c0,0,0,0-0.1,0.1c0,0,0,0,0,0.1
	C7,5.9,7,5.9,7,6.1C7,6,7,6,7,6.1z M6.7,6.6L6.6,6.4l0,0l0,0l0,0c0,0,0,0,0,0c0,0,0,0,0,0c0,0,0,0,0.1,0c0,0,0,0,0.1,0l0.1,0
	c0,0,0,0-0.1,0c0,0,0,0-0.1,0s0,0-0.1,0c0,0,0,0,0,0c0,0,0-0.1,0-0.1c0,0,0-0.1,0-0.1c0,0-0.1-0.1-0.1-0.1s-0.1,0-0.1,0.1
	c0,0,0,0,0,0c0,0,0,0,0,0L6.7,6.6L6.7,6.6z M6.4,6.3C6.5,6.2,6.5,6.2,6.4,6.3L6.4,6.3l0.1-0.1l0,0l0,0c0,0,0,0,0,0l0,0l0,0
	c0,0,0,0,0,0l0,0L6.4,6.3z M7.6,6L7.4,5.6l-0.1,0L7.6,6L7.6,6z M6.1,6.8C6.1,6.8,6.1,6.8,6.1,6.8c0.1,0.1,0.1,0.1,0.2,0.1
	c0,0,0.1,0,0.1,0c0,0,0,0,0.1,0c0,0,0,0,0.1-0.1c0,0,0,0,0-0.1c0,0,0-0.1,0-0.1c0,0,0-0.1-0.1-0.1c0,0-0.1,0-0.1-0.1
	c0,0-0.1,0-0.1,0c0,0-0.1,0-0.1,0c0,0,0,0-0.1,0c0,0,0,0-0.1,0.1s0,0,0,0.1C6,6.7,6,6.7,6.1,6.8C6,6.7,6,6.8,6.1,6.8z M6.1,6.6
	C6.1,6.6,6.1,6.5,6.1,6.6C6.1,6.5,6.1,6.5,6.1,6.6c0.1-0.1,0.1-0.1,0.1-0.1s0,0,0.1,0c0,0,0,0,0.1,0c0,0,0,0,0,0.1c0,0,0,0,0,0.1
	c0,0,0,0,0,0.1c0,0,0,0,0,0c0,0,0,0-0.1,0c0,0,0,0-0.1,0c0,0,0,0-0.1,0c0,0,0,0-0.1,0c0,0,0,0,0-0.1C6.1,6.7,6.1,6.7,6.1,6.6
	C6.1,6.6,6.1,6.6,6.1,6.6z M8.2,5.6l0.2-0.1c0,0,0,0,0,0c0,0,0,0,0,0l0.1,0c0,0-0.1-0.1-0.1-0.1c0,0-0.1-0.1-0.1-0.1
	c0,0,0-0.1-0.1-0.1c0,0,0-0.1-0.1-0.1l-0.1,0c0,0,0,0.1,0,0.1c0,0,0,0.1,0,0.1C8.2,5.6,8.2,5.6,8.2,5.6C8.2,5.7,8.2,5.7,8.2,5.8
	l0.1,0L8.2,5.6z M8.2,5.5c0,0,0-0.1,0-0.1C8.3,5.4,8.3,5.4,8.2,5.5c0.1,0,0.1,0,0.2,0.1l-0.2,0C8.2,5.5,8.2,5.5,8.2,5.5z M9.3,5.5
	l0-0.2l0,0c0,0,0.1,0,0.1,0c0,0,0,0,0.1,0c0,0,0,0,0,0c0,0,0,0,0-0.1c0,0,0-0.1-0.1-0.1c0,0-0.1,0-0.1,0c0,0,0,0-0.1,0
	c0,0,0,0-0.1,0L9.3,5.5L9.3,5.5z M9.3,5.1C9.3,5.1,9.3,5.1,9.3,5.1C9.3,5.1,9.3,5.1,9.3,5.1l0.1,0c0,0,0,0,0,0c0,0,0,0,0,0l0,0
	c0,0,0,0,0,0c0,0,0,0-0.1,0l0,0L9.3,5.1C9.2,5.1,9.2,5.1,9.3,5.1z M8.9,5.6L8.9,5.6l-0.2,0L8.6,5.2l-0.1,0l0.1,0.4L8.9,5.6z
	 M9.7,5.5l0-0.2h0.1h0h0l0,0c0,0,0,0,0,0c0,0,0,0,0,0c0,0,0,0,0,0h0.1c0,0,0,0,0-0.1c0,0,0,0,0-0.1c0,0,0,0,0,0l0,0c0,0,0.1,0,0.1,0
	c0,0,0,0,0-0.1c0,0,0-0.1-0.1-0.1c0,0-0.1,0-0.1,0c0,0,0,0-0.1,0c0,0,0,0-0.1,0L9.7,5.5L9.7,5.5z M9.7,5.1C9.7,5.1,9.7,5.1,9.7,5.1
	C9.8,5.1,9.8,5.1,9.7,5.1l0.1,0c0,0,0,0,0,0c0,0,0,0,0,0l0,0c0,0,0,0,0,0c0,0,0,0-0.1,0h0L9.7,5.1C9.7,5.1,9.7,5.1,9.7,5.1z
	 M7.8,5.9L7.7,5.6c0,0,0,0,0.1,0c0,0,0,0,0.1,0c0,0,0,0,0.1,0c0,0,0,0,0.1,0c0,0,0,0,0.1,0c0,0,0,0,0,0l0,0L7.9,5.4l-0.1,0L8,5.7
	c0,0,0,0-0.1-0.1c0,0-0.1,0-0.1-0.1c0,0-0.1,0-0.1-0.1c0,0-0.1,0-0.1,0l0,0L7.8,5.9L7.8,5.9z M5.7,7.3c0.1,0,0.1-0.1,0.1-0.1
	c0-0.1-0.1-0.1-0.1-0.1c-0.1,0-0.1,0.1-0.1,0.1C5.6,7.3,5.7,7.3,5.7,7.3z M14.2,7.3c0.1,0,0.1-0.1,0.1-0.1c0-0.1-0.1-0.1-0.1-0.1
	s-0.1,0.1-0.1,0.1C14.1,7.3,14.2,7.3,14.2,7.3z"/>
</svg>
