<?xml version="1.0" encoding="utf-8"?>
<!-- Generator: Adobe Illustrator 19.0.0, SVG Export Plug-In . SVG Version: 6.00 Build 0)  -->
<svg version="1.1" id="Layer_1" xmlns="http://www.w3.org/2000/svg" xmlns:xlink="http://www.w3.org/1999/xlink" x="0px" y="0px"
	 viewBox="0 0 20 20" style="enable-background:new 0 0 20 20;" xml:space="preserve">
<style type="text/css">
	.st0{fill:#FFFFFF;}
</style>
<g id="XMLID_16_">
	<path id="XMLID_20_" class="st0" d="M7.1,7.5c0,0-0.5,1.8,0.9,3.1c0.4,0.4,1,1.3,0.1,2.1c0.1-0.5,0-0.7-0.4-1
		c-0.3-0.3-0.1-0.6-0.4-0.9c-0.7-0.8-1-1.4-0.7-2.7C6.8,7.7,7,7.4,7.1,7.5z"/>
	<path id="XMLID_19_" class="st0" d="M7.1,9.1c0.2,0.5,0.8,1,1.1,1.1C7.8,9.9,7.1,9,7,8.5S7,8.8,7.1,9.1z"/>
	<path id="XMLID_18_" class="st0" d="M8.9,7.5c0,0,0.5,1.8-0.9,3.1c-0.4,0.4-1,1.3-0.1,2.1c-0.1-0.5,0-0.7,0.4-1
		c0.3-0.3,0.1-0.6,0.4-0.9c0.7-0.8,1-1.4,0.7-2.7C9.2,7.7,9,7.4,8.9,7.5z"/>
	<path id="XMLID_17_" class="st0" d="M8.9,9.1c-0.2,0.5-0.8,1-1.1,1.1C8.2,9.9,8.9,9,8.9,8.5S9,8.8,8.9,9.1z"/>
</g>
<g id="XMLID_9_">
	<path id="XMLID_13_" class="st0" d="M12.8,11.6c0.2-0.1,0.3-0.2,0.5-0.2c0.5,0,1,0.4,1,1s-0.4,1-1,1c-0.5,0-0.9-0.4-1-0.9l0,0V8.6
		C12.4,8.5,12.6,10.4,12.8,11.6z M13.3,13.1c0.4,0,0.7-0.3,0.7-0.7s-0.3-0.7-0.7-0.7c-0.4,0-0.7,0.3-0.7,0.7S13,13.1,13.3,13.1z"/>
	<path id="XMLID_10_" class="st0" d="M12,11.6c-0.2-0.1-0.3-0.2-0.5-0.2c-0.5,0-1,0.4-1,1s0.4,1,1,1c0.5,0,0.9-0.4,1-0.9l0,0V8.6
		C12.4,8.5,12.2,10.4,12,11.6z M11.5,13.1c-0.4,0-0.7-0.3-0.7-0.7s0.3-0.7,0.7-0.7c0.4,0,0.7,0.3,0.7,0.7
		C12.2,12.8,11.8,13.1,11.5,13.1z"/>
</g>
<path id="XMLID_5_" class="st0" d="M13.7,5.8h-2.6c-0.4,0-0.8,0.2-1.1,0.5C9.8,6,9.4,5.8,8.9,5.8H6.3C5.6,5.8,5,6.4,5,7.2v5.7
	c0,0.7,0.6,1.3,1.3,1.3h2.6c0.4,0,0.8-0.2,1.1-0.5c0.2,0.3,0.6,0.5,1.1,0.5h2.6c0.7,0,1.3-0.6,1.3-1.3V7.2C15,6.4,14.4,5.8,13.7,5.8
	z M8.9,13.7H6.3c-0.4,0-0.8-0.3-0.8-0.8V7.2c0-0.4,0.3-0.8,0.8-0.8h2.6c0.4,0,0.8,0.3,0.8,0.8c0,0,0,0,0,0v5.7c0,0,0,0,0,0
	C9.7,13.3,9.4,13.7,8.9,13.7z M14.5,12.8c0,0.4-0.3,0.8-0.8,0.8H11c-0.4,0-0.8-0.3-0.8-0.8c0,0,0,0,0,0V7.2c0,0,0,0,0,0
	c0-0.4,0.4-0.8,0.8-0.8h2.6c0.4,0,0.8,0.3,0.8,0.8V12.8z"/>
<path id="XMLID_4_" class="st0" d="M6.2,12.8C6.2,12.9,6.2,13,6,13l0,0c-0.1,0-0.2-0.1-0.2-0.2V7.2C5.8,7.1,5.9,7,6,7l0,0
	c0.1,0,0.2,0.1,0.2,0.2V12.8z"/>
<path id="XMLID_3_" class="st0" d="M11.4,10.9c0,0.1-0.1,0.2-0.2,0.2l0,0c-0.1,0-0.2-0.1-0.2-0.2v-4c0-0.1,0.1-0.2,0.2-0.2l0,0
	c0.1,0,0.2,0.1,0.2,0.2V10.9z"/>
<path id="XMLID_2_" class="st0" d="M13.8,10.9c0,0.1-0.1,0.2-0.2,0.2l0,0c-0.1,0-0.2-0.1-0.2-0.2v-4c0-0.1,0.1-0.2,0.2-0.2l0,0
	c0.1,0,0.2,0.1,0.2,0.2V10.9z"/>
</svg>
