<?xml version="1.0" encoding="utf-8"?>
<!-- Generator: Adobe Illustrator 19.0.0, SVG Export Plug-In . SVG Version: 6.00 Build 0)  -->
<svg version="1.1" id="Layer_1" xmlns="http://www.w3.org/2000/svg" xmlns:xlink="http://www.w3.org/1999/xlink" x="0px" y="0px"
	 viewBox="0 0 20 20" style="enable-background:new 0 0 20 20;" xml:space="preserve">
<style type="text/css">
	.st0{fill:#FFFFFF;}
</style>
<path class="st0" d="M9.3,9.3C9.2,8.9,9,8.5,8.7,8.2c-0.8-0.8-2.2-0.8-3.1,0s-0.8,2.2,0,3.1s2.2,0.8,3.1,0l0,0L15,5
	C15,5,11.5,7.7,9.3,9.3z M6,10.9c-0.6-0.6-0.6-1.6,0-2.2C6.7,8,7.6,8,8.3,8.6c0.6,0.6,0.6,1.6,0,2.2C7.6,11.5,6.7,11.5,6,10.9z"/>
<path class="st0" d="M10.7,10.7c0.4,0.1,0.8,0.3,1.1,0.6c0.8,0.8,0.8,2.2,0,3.1s-2.2,0.8-3.1,0s-0.8-2.2,0-3.1l0,0L15,5
	C15,5,12.3,8.5,10.7,10.7z M9.1,14c0.6,0.6,1.6,0.6,2.2,0c0.6-0.6,0.6-1.6,0-2.2c-0.6-0.6-1.6-0.6-2.2,0C8.5,12.4,8.5,13.3,9.1,14z"
	/>
</svg>
