<?xml version="1.0" encoding="utf-8"?>
<!-- Generator: Adobe Illustrator 19.0.0, SVG Export Plug-In . SVG Version: 6.00 Build 0)  -->
<svg version="1.1" id="Layer_1" xmlns="http://www.w3.org/2000/svg" xmlns:xlink="http://www.w3.org/1999/xlink" x="0px" y="0px"
	 viewBox="0 0 20 20" style="enable-background:new 0 0 20 20;" xml:space="preserve">
<style type="text/css">
	.st0{fill:#FFFFFF;}
</style>
<path class="st0" d="M11.9,11.5l2.9-2.9c0.2-0.2,0.2-0.5,0-0.7l-1.2-1.2c-0.2-0.2-0.5-0.2-0.7,0L10,9.6c0,0-0.2,0.2-0.2,0.4
	c-0.1,0.4-0.3,1.2-0.6,1.5c-0.5,0.5-1.3,0.6-1.8,1.2s-0.4,1.1,0,1.5c0.4,0.4,0.9,0.5,1.5,0s0.7-1.4,1.2-1.8c0.4-0.4,1.2-0.5,1.6-0.6
	C11.8,11.7,11.9,11.5,11.9,11.5z M14.5,8c0.1,0.1,0.1,0.3,0,0.4c-0.1,0.1-0.3,0.1-0.4,0S14,8.2,14.2,8S14.4,7.9,14.5,8z M14,8.6
	c0.1,0.1,0.1,0.3,0,0.4c-0.1,0.1-0.3,0.1-0.4,0c-0.1-0.1-0.1-0.3,0-0.4S13.9,8.5,14,8.6z M13.5,9.1c0.1,0.1,0.1,0.3,0,0.4
	c-0.1,0.1-0.3,0.1-0.4,0c-0.1-0.1-0.1-0.3,0-0.4C13.2,9,13.4,9,13.5,9.1z M12.9,9.6c0.1,0.1,0.1,0.3,0,0.4c-0.1,0.1-0.3,0.1-0.4,0
	c-0.1-0.1-0.1-0.3,0-0.4S12.8,9.5,12.9,9.6z M12.4,10.2c0.1,0.1,0.1,0.3,0,0.4s-0.3,0.1-0.4,0c-0.1-0.1-0.1-0.3,0-0.4
	C12.1,10.1,12.3,10.1,12.4,10.2z M11.9,10.7c0.1,0.1,0.1,0.3,0,0.4s-0.3,0.1-0.4,0c-0.1-0.1-0.1-0.3,0-0.4
	C11.6,10.6,11.8,10.6,11.9,10.7z M14,7.5c0.1,0.1,0.1,0.3,0,0.4c-0.1,0.1-0.3,0.1-0.4,0s-0.1-0.3,0-0.4C13.7,7.4,13.9,7.4,14,7.5z
	 M13.5,8c0.1,0.1,0.1,0.3,0,0.4c-0.1,0.1-0.3,0.1-0.4,0S13,8.2,13.1,8C13.2,7.9,13.4,7.9,13.5,8z M12.9,8.6c0.1,0.1,0.1,0.3,0,0.4
	c-0.1,0.1-0.3,0.1-0.4,0c-0.1-0.1-0.1-0.3,0-0.4S12.8,8.5,12.9,8.6z M12.4,9.1c0.1,0.1,0.1,0.3,0,0.4c-0.1,0.1-0.3,0.1-0.4,0
	c-0.1-0.1-0.1-0.3,0-0.4C12.1,9,12.3,9,12.4,9.1z M11.9,9.6c0.1,0.1,0.1,0.3,0,0.4c-0.1,0.1-0.3,0.1-0.4,0c-0.1-0.1-0.1-0.3,0-0.4
	C11.6,9.5,11.8,9.5,11.9,9.6z M11.3,10.2c0.1,0.1,0.1,0.3,0,0.4c-0.1,0.1-0.3,0.1-0.4,0s-0.1-0.3,0-0.4C11,10.1,11.2,10.1,11.3,10.2
	z M13.5,7c0.1,0.1,0.1,0.3,0,0.4c-0.1,0.1-0.3,0.1-0.4,0C13,7.3,13,7.1,13.1,7C13.2,6.9,13.4,6.9,13.5,7z M12.9,7.5
	c0.1,0.1,0.1,0.3,0,0.4s-0.3,0.1-0.4,0s-0.1-0.3,0-0.4C12.6,7.4,12.8,7.4,12.9,7.5z M12.4,8c0.1,0.1,0.1,0.3,0,0.4s-0.3,0.1-0.4,0
	c-0.1-0.1-0.1-0.3,0-0.4C12.1,7.9,12.3,7.9,12.4,8z M11.8,8.6c0.1,0.1,0.1,0.3,0,0.4c-0.1,0.1-0.3,0.1-0.4,0c-0.1-0.1-0.1-0.3,0-0.4
	C11.6,8.5,11.7,8.5,11.8,8.6z M11.3,9.1c0.1,0.1,0.1,0.3,0,0.4c-0.1,0.1-0.3,0.1-0.4,0c-0.1-0.1-0.1-0.3,0-0.4S11.2,9,11.3,9.1z
	 M10.8,9.6c0.1,0.1,0.1,0.3,0,0.4c-0.1,0.1-0.3,0.1-0.4,0c-0.1-0.1-0.1-0.3,0-0.4C10.5,9.5,10.7,9.5,10.8,9.6z"/>
<path class="st0" d="M10,7.7c0.2,0,0.4,0,0.5-0.2L11,6.9c0.2-0.2,0.2-0.6,0-0.9l-0.4-0.4c-0.2-0.2-0.6-0.2-0.9,0L9.2,6.2
	C9.1,6.4,9,6.6,9,6.7C8.4,7,5.8,8.5,5,11.5c0,0,0,0.1,0,0.2c0.1,0.1,0.2,0.1,0.2,0.1C8.2,10.9,9.6,8.4,10,7.7z M10.4,5.9l0.5,0.5
	c0.1,0.1,0.1,0.2,0,0.3c-0.1,0.1-0.2,0.1-0.3,0l-0.5-0.5C10,6.1,10,6,10.1,5.9C10.1,5.8,10.2,5.8,10.4,5.9z"/>
</svg>
