<?xml version="1.0" encoding="utf-8"?>
<!-- Generator: Adobe Illustrator 19.0.0, SVG Export Plug-In . SVG Version: 6.00 Build 0)  -->
<svg version="1.1" id="Layer_1" xmlns="http://www.w3.org/2000/svg" xmlns:xlink="http://www.w3.org/1999/xlink" x="0px" y="0px"
	 viewBox="0 0 20 20" style="enable-background:new 0 0 20 20;" xml:space="preserve">
<style type="text/css">
	.st0{fill:#FFFFFF;}
</style>
<g>
	<path class="st0" d="M5.9,14.9c-0.4,0.4-1.2-0.4-0.8-0.8c0.4-0.4,0.9-0.9,1.4-1.4c1.2-1.2,1.8-6.2,5.9-7.7c0.4-0.1,0.5,0,0.5,0
		s-2.2,1.4-3.1,3c-0.9,1.6-1.6,4.6-2.6,5.5C6.3,14.5,6.2,14.6,5.9,14.9z"/>
	<path class="st0" d="M5.1,14.1c-0.4,0.4,0.4,1.2,0.8,0.8c0.4-0.4,0.9-0.9,1.4-1.4c1.2-1.2,6.2-1.8,7.7-5.9c0.1-0.4,0-0.5,0-0.5
		s-1.4,2.2-3,3.1c-1.6,0.9-4.6,1.6-5.5,2.6C5.5,13.7,5.4,13.8,5.1,14.1z"/>
</g>
</svg>
