<?xml version="1.0" encoding="utf-8"?>
<!-- Generator: Adobe Illustrator 19.0.0, SVG Export Plug-In . SVG Version: 6.00 Build 0)  -->
<svg version="1.1" id="Layer_1" xmlns="http://www.w3.org/2000/svg" xmlns:xlink="http://www.w3.org/1999/xlink" x="0px" y="0px"
	 viewBox="0 0 20 20" style="enable-background:new 0 0 20 20;" xml:space="preserve">
<style type="text/css">
	.st0{fill:#B3080F;}
</style>
<path class="st0" d="M13.7,7L13.7,7L13.7,7c0-0.1-0.1-0.1-0.1-0.1c0,0-0.1-0.1-0.1-0.1c0,0,0,0,0,0c-0.1,0-0.1,0-0.1,0
	c0,0-0.1,0.1-0.1,0.1C13,7,13,7.1,12.9,7.3c-0.1,0.4-0.3,0.7-0.4,1.1c-0.1,0.2-0.2,0.4-0.3,0.6c0,0,0,0,0,0l0,0h0c0,0,0,0-0.1,0
	c0,0,0,0,0,0v0c0-0.2,0-0.3,0.1-0.4c0.1-0.4,0.2-0.8,0.2-1.2c0-0.4,0.1-0.9,0.1-1.3c0,0,0-0.1,0-0.1c0-0.1,0-0.1,0-0.2
	c0-0.1-0.1-0.1-0.1-0.1c-0.1-0.1-0.2-0.1-0.3-0.1c-0.1,0-0.2,0-0.2,0.1s-0.1,0.1-0.1,0.2c-0.1,0.3-0.1,0.5-0.1,0.8
	c-0.1,0.4-0.2,0.8-0.2,1.2c0,0.2-0.1,0.4-0.1,0.6c0,0.1,0,0.1,0,0.1c0,0,0,0,0,0c0,0,0,0,0,0s0,0,0,0l0,0l0,0l0,0c0-0.4,0-0.7,0-1.1
	c0-0.6,0-1.2,0-1.8c0-0.1,0-0.2,0-0.2C11,5.2,10.9,5,10.7,5c0,0-0.1,0-0.1,0c-0.1,0-0.2,0-0.2,0.1c-0.1,0-0.1,0.1-0.1,0.2
	c-0.1,0.1-0.1,0.3-0.1,0.5c0,0.4,0,0.7-0.1,1.1c0,0.1,0,0.3,0,0.4c0,0.3,0,0.7,0.1,1c0,0.1,0,0.1,0,0.2c0,0,0,0,0,0.1s0,0,0,0.1l0,0
	h0c0,0-0.1,0-0.1,0c0,0-0.1-0.1-0.1-0.1C9.9,7.9,9.8,7.3,9.7,6.7C9.6,6.4,9.5,6.1,9.5,5.8c0-0.1-0.1-0.2-0.1-0.2
	C9.3,5.5,9.2,5.5,9.1,5.5h0c-0.1,0-0.2,0-0.3,0.1C8.8,5.6,8.7,5.7,8.7,5.8c0,0.1,0,0.1,0,0.2c0,0.2,0,0.4,0,0.6c0,0.1,0,0.2,0,0.3v0
	c0,0,0,0,0,0.1C8.8,7.5,9,8,9,8.4c0,0.3,0.1,0.6,0.1,0.9c0,0.1,0,0.1,0,0.2c0,0.2,0,0.4-0.1,0.5c0,0.1-0.1,0.2-0.1,0.2
	c-0.1,0.1-0.1,0.1-0.2,0.1s-0.1,0-0.2-0.1c-0.1-0.1-0.2-0.2-0.3-0.3C7.9,9.8,7.7,9.6,7.4,9.5C7.2,9.4,7,9.3,6.8,9.3c0,0-0.1,0-0.1,0
	c-0.1,0-0.2,0-0.2,0.1C6.4,9.4,6.3,9.5,6.3,9.6c0,0.1,0.1,0.2,0.2,0.2C6.6,9.9,6.7,9.9,6.8,10C6.9,10,7,10.1,7,10.2
	c0.2,0.2,0.4,0.5,0.6,0.7c0.1,0.1,0.2,0.3,0.3,0.4c0.1,0.2,0.3,0.4,0.4,0.5c0.3,0.3,0.7,0.5,1,0.8c0.2,0.1,0.2,0.4,0.3,0.6
	c0,0.2,0.1,0.3,0.1,0.5c-0.3,0.1-0.4,0.1-0.4,0.1c0,0,0,0,0,0.1v1.1c0,0,0,0,0,0.1c0,0,0,0,0.1,0h3.3c0,0,0,0,0.1,0c0,0,0,0,0-0.1
	v-1.1c0,0,0-0.1-0.1-0.1c-0.1,0-0.2-0.1-0.3-0.1c0-0.2,0-0.4,0-0.6v0c0-0.2,0-0.3,0.1-0.5c0.2-0.6,0.3-1.2,0.4-1.9
	c0.1-0.4,0.1-0.8,0.2-1.2c0-0.1,0.1-0.2,0.1-0.3c0.1-0.3,0.2-0.6,0.3-1c0.1-0.3,0.2-0.6,0.3-0.9c0-0.1,0-0.1,0-0.2
	C13.7,7,13.7,7,13.7,7z M9.4,14.8v-1c0.1,0,0.2-0.1,0.4-0.1c0,0,0,0,0.1,0c0,0,0,0,0,0c0,0,0.1,0,0.1,0s0,0,0,0c0,0,0.1,0,0.1,0
	c0,0,0,0,0.1,0c0,0,0.1,0,0.1,0c0,0,0,0,0.1,0c0,0,0.1,0,0.1,0c0,0,0,0,0.1,0c0,0,0.1,0,0.1,0c0,0,0,0,0.1,0c0,0,0.1,0,0.1,0
	c0,0,0,0,0,0c0.1,0,0.1,0,0.2,0c0.1,0,0.2,0,0.3,0c0,0,0,0,0.1,0c0.1,0,0.2,0,0.3,0c0,0,0,0,0.1,0c0.1,0,0.2,0,0.3,0c0,0,0,0,0,0
	c0.1,0,0.2,0,0.3,0.1c0.1,0,0.2,0.1,0.3,0.1v1L9.4,14.8L9.4,14.8z M13.5,7.2c-0.1,0.3-0.2,0.6-0.3,0.9c-0.1,0.3-0.2,0.6-0.3,1
	c0,0.1-0.1,0.2-0.1,0.3c-0.1,0.4-0.1,0.8-0.2,1.2c-0.1,0.6-0.2,1.2-0.4,1.8c-0.1,0.2-0.1,0.4-0.1,0.5v0c0,0.2,0,0.4,0,0.6
	c-0.1,0-0.2,0-0.3-0.1c0,0,0,0,0,0c-0.1,0-0.2,0-0.3,0c0,0,0,0-0.1,0c-0.1,0-0.2,0-0.3,0c0,0,0,0-0.1,0c-0.1,0-0.2,0-0.3,0
	c0,0,0,0,0,0c-0.1,0-0.1,0-0.1,0c0,0,0,0-0.1,0c0,0-0.1,0-0.1,0c0,0-0.1,0-0.1,0c0,0-0.1,0-0.1,0s-0.1,0-0.1,0c0,0-0.1,0-0.1,0
	c0,0,0,0-0.1,0c0,0-0.1,0-0.1,0c0,0,0,0-0.1,0s0,0-0.1,0c0,0,0,0-0.1,0c0,0,0,0-0.1,0c0,0,0,0,0,0c0-0.2-0.1-0.3-0.1-0.5
	c0-0.2-0.1-0.5-0.3-0.7c-0.3-0.3-0.6-0.5-1-0.8c-0.2-0.1-0.3-0.3-0.4-0.4c-0.1-0.2-0.2-0.3-0.3-0.4c-0.2-0.3-0.4-0.5-0.6-0.7
	C7.1,10,7,9.9,7,9.9C6.8,9.8,6.7,9.8,6.6,9.7c-0.1,0-0.1-0.1-0.1-0.1c0,0,0-0.1,0.1-0.1c0,0,0.1-0.1,0.2-0.1c0,0,0.1,0,0.1,0
	c0.2,0,0.4,0.1,0.6,0.2c0.3,0.1,0.4,0.3,0.7,0.5c0.1,0.1,0.2,0.2,0.4,0.3c0.1,0,0.2,0.1,0.3,0.1c0.1,0,0.2,0,0.3-0.1
	c0.1-0.1,0.1-0.2,0.2-0.3c0.1-0.2,0.1-0.4,0.1-0.6c0-0.1,0-0.1,0-0.2c0-0.3-0.1-0.6-0.1-0.9C9.1,7.9,9,7.5,9,7c0,0,0,0,0-0.1v0
	c0-0.1,0-0.2,0-0.3c0-0.2,0-0.4,0-0.6c0-0.1,0-0.1,0-0.2c0-0.1,0-0.1,0.1-0.2c0,0,0.1-0.1,0.2-0.1h0c0.1,0,0.1,0,0.2,0.1
	c0,0,0.1,0.1,0.1,0.2c0.1,0.3,0.1,0.6,0.2,0.9c0.1,0.6,0.2,1.2,0.4,1.7c0,0.1,0,0.1,0.1,0.2c0.1,0,0.1,0,0.2,0c0,0,0,0,0.1,0
	c0,0,0.1,0,0.1,0c0,0,0,0,0-0.1s0-0.1,0-0.1c0,0,0,0,0-0.1c0-0.1,0-0.1,0-0.2c0-0.3-0.1-0.7-0.1-1c0-0.1,0-0.3,0-0.4
	c0-0.4,0-0.7,0.1-1.1c0-0.1,0-0.3,0.1-0.4c0-0.1,0.1-0.1,0.1-0.1c0,0,0.1,0,0.2,0c0,0,0,0,0.1,0c0.1,0,0.2,0.1,0.2,0.2
	c0,0.1,0,0.1,0,0.2c0,0.6,0,1.2,0,1.8c0,0.4,0,0.7,0,1.1c0,0,0,0.1,0,0.1c0,0,0,0,0,0c0,0,0,0,0.1,0h0c0,0,0.1,0,0.1,0
	c0,0,0.1,0,0.1-0.1c0.1-0.1,0.1-0.1,0.1-0.2c0-0.2,0.1-0.4,0.1-0.6c0.1-0.4,0.2-0.8,0.2-1.2c0.1-0.3,0.1-0.5,0.1-0.8
	c0-0.1,0.1-0.1,0.1-0.1c0,0,0.1-0.1,0.1-0.1c0.1,0,0.1,0,0.2,0.1c0,0,0.1,0.1,0.1,0.1c0,0,0,0.1,0,0.1c0,0,0,0.1,0,0.1
	c0,0.4-0.1,0.9-0.1,1.3c0,0.4-0.1,0.8-0.2,1.2C12,8.6,12,8.8,12,8.9c0,0,0,0,0,0.1c0,0.1,0,0.1,0.1,0.1c0,0,0.1,0,0.1,0.1l0,0h0
	c0,0,0.1,0,0.1,0c0,0,0.1-0.1,0.1-0.1c0.1-0.2,0.2-0.4,0.3-0.6c0.1-0.3,0.3-0.7,0.4-1.1c0.1-0.1,0.1-0.3,0.2-0.4c0,0,0,0,0.1-0.1
	c0,0,0.1,0,0.1,0h0c0,0,0.1,0,0.1,0.1c0,0,0.1,0.1,0.1,0.1l0,0c0,0,0,0,0,0.1C13.6,7.1,13.5,7.2,13.5,7.2z"/>
</svg>
