<?xml version="1.0" encoding="utf-8"?>
<!-- Generator: Adobe Illustrator 19.0.0, SVG Export Plug-In . SVG Version: 6.00 Build 0)  -->
<svg version="1.1" id="Icons" xmlns="http://www.w3.org/2000/svg" xmlns:xlink="http://www.w3.org/1999/xlink" x="0px" y="0px"
	 viewBox="326 1329.9 20 20" style="enable-background:new 326 1329.9 20 20;" xml:space="preserve">
<path id="Twitter__x28_alt_x29__1_" d="M340,1339.5c0.6,0,1-0.3,1.1-0.7c-0.2,0.1-0.8,0.3-1.2,0.1c0-0.1,0-0.2,0-0.2
	c-0.3-1-1.2-1.8-2.1-1.7c0.1,0,0.1,0,0.2-0.1c0.1,0,0.7-0.1,0.6-0.3c-0.1-0.2-0.8,0.1-1,0.2c0.2-0.1,0.5-0.2,0.5-0.4
	c-0.3,0-0.6,0.2-0.8,0.4c0.1-0.1,0.1-0.2,0.1-0.3c-0.8,0.5-1.2,1.5-1.6,2.4c-0.3-0.3-0.5-0.5-0.8-0.6c-0.6-0.3-1.4-0.7-2.6-1.1
	c0,0.4,0.2,0.9,0.9,1.3c-0.1,0-0.4,0-0.6,0.1c0.1,0.4,0.4,0.8,1.1,1c-0.3,0-0.5,0.1-0.7,0.3c0.1,0.3,0.5,0.7,1.2,0.6
	c-0.8,0.3-0.3,1,0.3,0.9c-1.1,1.1-2.7,1-3.7,0.1c2.5,3.4,8,2,8.8-1.3c0.6,0,1-0.2,1.2-0.4C340.8,1339.7,340.3,1339.6,340,1339.5z"/>
</svg>
